<?xml version="1.0" standalone="no"?>
<!DOCTYPE svg PUBLIC "-//W3C//DTD SVG 20010904//EN"
 "http://www.w3.org/TR/2001/REC-SVG-20010904/DTD/svg10.dtd">
<svg version="1.0" xmlns="http://www.w3.org/2000/svg"
 width="512.000000pt" height="512.000000pt" viewBox="0 0 512.000000 512.000000"
 preserveAspectRatio="xMidYMid meet">
<metadata>
Created by potrace 1.11, written by Peter Selinger 2001-2013
</metadata>
<g transform="translate(0.000000,512.000000) scale(0.100000,-0.100000)"
fill="#000000" stroke="none">
<path d="M4256 3263 c-1 -2 -23 -6 -47 -9 -79 -11 -194 -53 -260 -95 -85 -54
-199 -172 -244 -254 -101 -180 -117 -399 -45 -593 40 -107 128 -224 230 -307
66 -54 198 -113 291 -131 52 -9 209 -11 249 -3 19 4 50 11 69 14 52 9 149 53
214 97 157 107 272 282 299 457 10 61 6 239 -5 286 -8 32 -44 131 -55 151 -8
14 -6 23 11 40 12 11 44 44 72 72 l49 52 -44 45 -44 45 -63 -62 -63 -62 -47
44 c-26 25 -50 47 -53 51 -37 39 -159 105 -245 132 -64 21 -257 42 -269 30z
m209 -258 c28 -9 74 -33 103 -52 51 -34 122 -107 122 -126 0 -5 -22 -32 -49
-60 -92 -97 -156 -165 -208 -221 -29 -31 -56 -56 -61 -56 -4 0 -15 8 -23 18
-9 9 -31 31 -50 47 -19 17 -66 58 -105 92 l-71 63 -41 -49 -42 -49 88 -79 c48
-43 89 -80 92 -83 3 -3 40 -36 82 -74 70 -61 80 -67 95 -55 10 8 20 17 23 21
6 7 205 219 281 299 27 29 53 49 57 45 8 -9 8 -221 -1 -253 -13 -48 -48 -116
-84 -162 -105 -134 -275 -197 -448 -166 -68 12 -160 64 -219 123 -255 257
-143 693 202 787 62 17 195 12 257 -10z"/>
<path d="M36 3240 c-1 -3 -2 -30 -1 -60 l0 -55 143 -2 c79 -1 149 -3 155 -6 9
-3 12 -151 12 -611 l0 -606 30 -1 c41 -1 99 2 104 6 1 2 3 276 3 609 0 445 3
606 12 607 6 0 75 0 154 0 l143 0 -3 62 -3 62 -373 0 c-206 0 -375 -2 -376 -5z"/>
<path d="M2518 3235 c0 0 -2 -303 -3 -673 l-1 -674 250 5 c138 2 262 7 276 11
14 3 37 8 51 11 14 3 44 11 68 19 274 97 425 310 434 612 12 375 -221 633
-614 680 -45 5 -437 13 -461 9z m392 -240 c161 -15 263 -61 344 -157 99 -115
119 -332 45 -483 -35 -70 -50 -89 -104 -131 -55 -43 -90 -60 -165 -79 -63 -17
-219 -29 -250 -20 -14 4 -16 56 -14 443 1 240 2 437 3 438 1 1 68 -4 141 -11z"/>
<path d="M1128 2915 c-2 -1 -21 -5 -43 -8 -173 -20 -344 -178 -399 -367 -17
-57 -22 -175 -11 -245 25 -148 138 -296 279 -365 146 -72 314 -72 461 0 135
66 222 167 270 309 22 68 27 202 9 278 -41 176 -184 330 -353 380 -47 13 -203
27 -213 18z m178 -130 c90 -26 182 -107 229 -202 32 -64 35 -79 40 -172 7
-168 -83 -319 -233 -389 -50 -24 -69 -27 -157 -26 -89 0 -106 3 -157 28 -147
73 -229 209 -230 379 -1 271 247 457 508 382z"/>
<path d="M1980 2272 c-99 -13 -176 -117 -164 -221 5 -39 30 -100 52 -124 64
-71 195 -75 269 -10 59 52 77 175 38 256 -30 64 -120 109 -195 99z"/>
</g>
</svg>
